# xmcd CD database file
#
# Track frame offsets:
#	150
#	14075
#	23895
#	48198
#	64280
#	77570
#	89186
#	102930
#	123291
#	138247
#	150552
#	163106
#
# Disc length: 2432 seconds
#
# Revision: 3
# Processed by: cddbd v1.5.2PL0 Copyright (c) Steve Scherf et al.
# Submitted via: CDex 2.05
#
DISCID=9b097e0c
DTITLE=Willie Nelson - For The Good Times: A Tribute To Ray Price
DYEAR=2016
DGENRE=Country
TTITLE0=Heartaches By The Number
TTITLE1=I'll Be There (If You Ever Want Me)
TTITLE2=Faded Love
TTITLE3=It Always Will Be
TTITLE4=City Lights
TTITLE5=Don't You Ever Get Tired Of Hurting Me
TTITLE6=Make The World Go Away
TTITLE7=I'm Still Not Over You
TTITLE8=Night Life
TTITLE9=Crazy Arms
TTITLE10=Invitation To The Blues
TTITLE11=For The Good Times
EXTD=YEAR: 2016
EXTT0=
EXTT1=
EXTT2=
EXTT3=
EXTT4=
EXTT5=
EXTT6=
EXTT7=
EXTT8=
EXTT9=
EXTT10=
EXTT11=
PLAYORDER=
